<svg version="1" xmlns="http://www.w3.org/2000/svg" width="1269.333" height="1269.333" viewBox="0 0 952.000000 952.000000"><path d="M480.5 6.5c-2.2.7-5.3 2-7 2.8-3.2 1.8-11.6 1.6-20.7-.4-4.3-1-12.9-.5-15 .8-.5.3-2.6.6-4.6.8-2 .2-4.8.8-6.2 1.3-3 1.2-8 5.7-8 7.2 0 .7-.6.8-1.7.2-1-.5-3.6-.8-5.8-.7-11.3.8-16.8 3-22.6 9.1-2 2.2-5.5 5.2-7.8 6.7-2.8 1.8-4.9 4.3-6.2 7.1-1.3 3-2.9 4.8-4.9 5.6-1.7.7-3.7 2.1-4.4 3.1-.7 1.1-3.4 2.5-6.1 3.3-4.6 1.4-9.5 5-9.5 6.9 0 1.1-3.9 4.7-5 4.7-.4 0-1.4 1.5-2.1 3.2-1.6 3.7-1.6 3.9-1.8 7.1-.1 1.6-1.3 3-3.8 4.5-7.8 4.4-16.4 14.1-18.1 20.6-.6 2.2-.9 4.3-.7 4.7.3.4.2.9-.3 1.1-.4.1-1.5 1.9-2.4 3.8-1.4 2.8-1.6 5.5-1.3 13.7.3 5.7.1 10.3-.3 10.3-.7 0-5.6 6.7-5.8 7.9 0 .3-.8 2.3-1.8 4.4-.9 2.1-1.7 5.2-1.8 7-.2 5.1 2.2 17.8 4.3 23.2 1.5 3.8 1.7 5.8 1 8.2-.6 1.9-.6 4.8 0 7.3.6 2.7.6 4.7-.2 6.1-1.4 2.6-1.4 10.1 0 12.7.6 1 1.2 3.4 1.4 5.3.5 4.1 2.7 8.7 5.5 11.2 1.6 1.5 2 3.2 2.1 9 .1 4 .3 8.3.6 9.7.3 1.4.7 3.5.9 4.7.7 3.6 2.4 6.1 5.9 8.7 2.2 1.7 3.6 3.9 4.4 6.8 1.8 6.6 5.9 10.4 15.1 13.8 2 .8 3.2 1.9 3.2 3.1 0 3.1 0 3.1 4.4 9.4 4.3 6.2 7.4 9.4 9.2 9.5.5 0 3 1.5 5.4 3.2 2.5 1.8 4.6 3.2 4.7 3 .2-.1 2 .5 4 1.3 2 .9 5.7 1.6 8.2 1.7 4 .1 4.9.5 6.6 3.2 1.1 1.7 3.8 3.9 6 5 2.2 1 4.3 2.4 4.8 3.1 1.7 3 11.8 7.5 20.2 9.1 1.1.2 3.5.7 5.4 1 2.4.5 3.2.3 2.7-.5-1.5-2.4 3.8-1 8.3 2.3 8.8 6.4 12.9 7.6 29.1 7.9 10.5.2 11.8 0 14.7-2.1 1.7-1.2 3.4-2.2 3.8-2.2.4 0 2-.9 3.5-2 2.5-1.8 3.1-1.9 6.7-.6 3.5 1.2 16.4 1.5 20.3.4.8-.2 3.7-1.8 6.4-3.6 2.6-1.7 6-3.4 7.5-3.7 4-.9 9.8-6 11.2-10 1.2-3.1 1.7-3.5 5-3.5 2.2 0 5-1 7.4-2.5 2-1.4 4.2-2.4 4.9-2.2 2 .7 9.9-2.3 11.2-4.2.8-1 3.7-3.2 6.6-4.9 7.3-4.1 12.4-9.6 14.6-15.5 1.5-4 2.4-5.1 4.4-5.3 4.6-.5 8.7-3.3 11.3-7.9 1.5-2.4 2.4-4.9 2.1-5.4-.3-.5 1-2.2 2.9-3.9 4.2-3.5 5.3-7.2 5.5-18.2.1-2.5.9-4.2 3-6.1 2.6-2.3 5.1-6.2 10.3-16.2 2.9-5.7 3.3-20 .8-29.6-1.8-6.7-1.8-7.8-.5-10.3.8-1.5 1.2-4.3 1-6.3-.3-1.9-.1-3.5.4-3.5 2 0 4.6-13.9 3.1-16.5-.7-1.2-.9-2.6-1.6-8.3-.5-4.4-3.9-12.5-6.1-14.3-.8-.7-.8-2.3.2-6.7.7-3.1 1.2-7.1 1-8.7-.2-1.7-.4-4-.5-5.1 0-1.2-1.8-3.9-3.8-6-2.5-2.6-4.4-6-5.7-9.9-2-6.5-7.6-13-12.1-14.1-2.3-.6-3.3-3.1-2.6-6.8.1-.5-.4-1.6-1.2-2.5-.7-.9-2.2-3.8-3.1-6.4-2.1-5.6-7.2-11.1-11.2-12.1-1.5-.4-3.7-1.8-4.9-3-2.9-3.1-10.1-7.2-15-8.5-3-.8-4.3-1.8-5.4-4.2-.9-2-3.8-4.7-8-7.4-3.6-2.4-8.1-5.7-10-7.4-1.9-1.7-4-3.1-4.6-3.1-.7 0-4.3-1.6-8-3.6-5.7-3-7.5-3.5-11.2-3.1-2.7.3-4.6 0-5.1-.7-1.3-2.1-6.6-5.3-11.7-7.1-6.3-2.2-19.7-2.8-25-1z"/><path d="M724.9 147.8c-3.6.4-9.5 5.9-10.8 9.9-.6 2-.6 3.3 0 3.3.5 0 .9.7.9 1.5s.5 1.5 1 1.5c.6 0 1 .5 1 1.1 0 .6 1.8 3.6 4 6.6 2.2 3.1 4 6.1 4 6.7 0 3.1-24.5 24.6-28 24.6-.5 0-1.5.6-2.2 1.2-.7.7-3.6 2.8-6.3 4.7-2.8 1.9-6.5 5-8.3 7-3.4 3.6-3.7 5.2-1.9 11.6 3.7 12.7 4.5 16.6 3.1 15.3-.6-.7-15.2 4.8-17.1 6.4-.7.6-1.3.8-1.3.4 0-.3-2.7.7-6 2.4s-6.2 3-6.5 3.1c-.2 0-3.2 1.5-6.6 3.4-3.3 1.9-6.5 3.5-7 3.5s-.9.4-.9.9-1 1.3-2.2 1.7c-2 .6-26.7 16.9-27.8 18.3-.3.3-3.2 2.6-6.5 5-3.3 2.5-6.7 5.2-7.5 6-.8.9-3.3 3-5.5 4.6-5 3.7-35.3 34-38 37.9-1.1 1.6-2.5 3.4-3 4-2 2-3.5 7.1-3.3 11.1.2 4.9 2.4 8 13.8 19.5 9.2 9.2 14.1 11.9 20.6 11.3 15.5-1.5 20-.8 23.4 3.2 1.2 1.4 1.1 2.1-.5 4.8-1 1.8-2.7 3.9-3.7 4.8-1 .9-1.8 1.8-1.8 2.1 0 .2-4.2 4.7-9.2 9.9-19.1 19.5-22.4 26.3-22 44.6.1 3.5-.3 6.3-.8 6.3-1.6 0-4.1-4.6-4.7-8.6-.7-4.5-2.9-9.4-4.3-9.4-.5 0-1.5-.6-2.2-1.3-.7-.6-3.5-2.3-6.3-3.7-2.7-1.3-5.2-2.5-5.3-2.6-.6-.4-1.3-14.3-1.3-25.4-.1-16-2-24.1-7.2-29.8-1.1-1.2-1.5-2.2-.9-2.2 2.3 0 1.2-2.6-1.8-4.3-1.6-1-3-2.2-3-2.6 0-1.1-12-5.9-17-6.7-.8-.2-3.7-.6-6.5-.9-7.7-1-13.7-2.2-17-3.5-4.7-1.8-15.6-3.7-20.5-3.5-7.4.3-11.1 1.6-14.1 4.6-2.2 2.2-3.3 2.8-4.7 2.1-2.9-1.5-10-.4-14.5 2.3-2.4 1.4-5.5 2.5-6.8 2.5-3 0-10.7 2.3-14.8 4.4-4.1 2.2-7.7 5.9-10.2 10.7-1.1 2.2-2.6 4.2-3.3 4.5-2.8 1.1-9.6 16.7-12.2 27.9l-.6 3-1.2-2.5c-1.6-3.7-3.3-5.7-11.1-13.5s-9.8-11-9.3-14.6c.3-2.1.7-2.4 4-2.1 3.7.3 4.3-.1 16.8-12.8 14.5-14.6 15.9-16.3 16.1-20.5.3-3.9-1-9.5-2.2-9.5-.5 0-.9-.6-.9-1.3 0-1.3-16.7-18.8-22.1-23.2-9.9-8.1-13.5-11-13.9-11.5-.3-.3-2.7-2.1-5.5-4-2.7-1.9-5.1-3.8-5.3-4.2-.2-.4-1-.8-1.7-.8s-1.5-.4-1.7-.8c-.1-.4-2.8-2.3-5.8-4.2-27.6-17-45.7-25.8-72.5-35.1-13.7-4.7-14-4.9-14.3-7.9-.3-3.9-.3-4.9.2-8.5 1.4-10.4 1.9-15.2 1.8-16.9-.2-4-6.7-8.7-22.2-16.3-28.1-13.6-32-15.5-32-16.2 0-.3 2.5-3.2 5.4-6.4 5.3-5.7 5.4-5.9 4.4-10-2.3-10.7-9.3-18.3-17.1-18.5-3.2-.1-4.5.5-7.8 3.8-2.2 2.2-3.8 4.4-3.4 5 .3.5.2 1-.3 1-.9 0-1.4 2.3-2.7 12-.3 1.9-.7 4.6-1 6-.4 1.4-.7 2.9-.8 3.5-.2.5-.6 1.6-1 2.2-.5.7-.6 1.3-.3 1.3.2 0-.7 1.9-2 4.2-10 17.6-10 22.1.4 32.1 3.7 3.6 7.8 7.5 9.2 8.7 9.4 8.1 12.7 10.8 15.9 12.7 3.4 2 3.9 2.9 5.5 10 5.5 23.4 8.2 26.9 20.9 27.6 1.5.1 2.7.4 2.7.7 0 .3 1.2.6 2.8.6 4.6.3 25.4 6.5 35 10.5 1.2.5 3.2 1.3 4.5 1.8 1.2.6 4.7 2 7.7 3.2 8 3.3 23.3 11.3 32.5 17 4.4 2.8 8.9 5.6 10 6.2 1.1.7 2.2 1.4 2.5 1.7.3.3 4 3.1 8.2 6.2 4.2 3.2 9.6 7.5 11.9 9.5C349 347 363 361.3 363 362c0 .3-3.3 2.3-7.4 4.5-9 4.8-9.8 5.3-11.9 8.6-2.9 4.3-2.4 11.3 1.2 19 1.9 4.2 2.9 5.6 10.4 14 3.4 3.8 3.5 3.9 9.8 14.2 5.1 8.3 8 10 16.8 9.9 9.2-.1 13.5-2.3 15.9-8.1 1.6-3.8 4.8-13.8 5.6-17.6.2-.6.9-2.9 1.6-5.3 1.2-3.9 1.6-4.2 4.1-3.8 1.5.2 4.7 1.8 7.1 3.4 2.5 1.7 6.3 3.9 8.6 4.9 2.3 1 4.2 2.3 4.2 3 0 1.9-2.1 6.2-6.4 13.3-6 9.9-8.4 18-8.1 27.2.2 5.9.7 8.5 2.6 11.5 1.3 2.1 2.6 3.9 3.1 4.1 1.1.5-.8 4.7-4.5 9.5-1.8 2.4-4.3 6.8-5.5 9.8-1.3 3-3.1 6-4.2 6.7-2.1 1.3-11.1 1.9-12.8.8-.7-.4-1.2-.4-1.2.1 0 .4-7.4.7-16.5.7-11.8-.2-16.5.1-16.6 1-.1.6-.1 9.3-.1 19.2 0 10-.3 18.7-.7 19.2-.4.6-3.6 1.2-7.3 1.4-5 .1-7.2-.2-9.4-1.7-4.2-2.7-29.1-28.2-29.3-30-.1-.3-.1-.6-.2-.8 0-.1-.3-1.3-.5-2.7-.2-1.3-1.2-3.5-2-4.8-1.4-2.2-1.4-3.2.1-11 1-4.8 1.9-12.1 2-16.2.1-5.3.8-8.7 2.2-11.5 1.2-2.2 2.6-5.9 3.3-8.2.9-2.8 2-4.3 3.4-4.7 3-.7 10-7.4 12.1-11.5.9-1.9 1.9-5.8 2-8.6.3-5.2-1.3-15.6-2.5-16.5-.4-.3-1-1.7-1.3-3.1-.4-1.4-3.3-6.2-6.5-10.5-3.5-4.6-7.3-11.4-9.2-16.3-3.5-8.8-6-11.9-21-27-8.7-8.7-16.5-15.8-23.5-21.6-2.7-2.2-6.5-5.4-8.4-7-2-1.7-4-3.3-4.6-3.7-.5-.4-2.6-2.1-4.6-3.8-2-1.6-4.1-3-4.7-3-.6 0-1.2-.4-1.4-.8-.2-.7-6-5.1-15.3-11.8-5.4-3.8-21.2-13.7-31.5-19.7-6.3-3.7-12.2-7.2-13-7.7-.8-.5-3.3-1.9-5.5-3.1-4.2-2.2-14.1-8.6-16.2-10.4-4.8-4-16-11.5-17.2-11.5-.6 0-1.1-.5-1.1-1.1 0-.5-.4-.8-.9-.5-.5.4-1.1.3-1.3-.1-.3-.8-5.2-3.3-12.8-6.6-6.4-2.8-16.9-5.6-24.2-6.4-4.7-.5-5.9.2-3.7 2.4.7.7-.6.6-3.1-.3-5.9-2-14.3-2.3-21.9-.8-3.5.7-6.6 1.5-6.8 1.8-.6.6 3.7 7.9 4.9 8.4.4.2.8.9.8 1.6 0 .6.8 1.9 1.8 2.7.9.9 3.1 3.1 4.8 5 3.9 4.3 8.7 8.5 13.9 12.3 2.2 1.6 4.2 3.2 4.5 3.6.8 1 16 10 16.9 10 .5 0 1.4.7 2.1 1.5.7.8 1.6 1.2 2.1.9.5-.3.9 0 .9.5 0 .6-.6 1.1-1.2 1.2-.7 0-2.2.2-3.3.5-5.2 1.1-10.3 1.8-13.7 1.7-3.3 0-3.5.2-2.5 1.9.7 1 5.6 6.1 10.9 11.3 10 9.7 24.4 21 33.6 26.2 3 1.7 5 3.3 4.5 3.6-.4.2-7.7.3-16 .1-8.4-.1-15.3 0-15.3.4 0 .9 11.5 12.7 17 17.6 4.4 3.8 25.5 18.1 26.8 18.1.4.1 2.7 1.2 5.2 2.5s4.8 2.3 5.2 2.2c.5-.1.8.3.8.8s.3.9.8.8c.4-.1 2.1.4 3.7 1.1 1.7.7 3.9 1.6 5 2.1 1.1.4-2.5.7-8.5.7-5.8 0-14.8.4-20 .8-5.2.4-10 .8-10.7.8-1.7 0-.5 1.7 1.3 1.7.8 0 1.7.7 2 1.5.4.8 1.1 1.5 1.6 1.5.6 0 2.3 1 3.8 2.2 6.4 5.1 15.6 11.3 22.6 15.3 6 3.4 7 4.3 5.2 4.6-1.3.2-11.8.4-23.3.4h-21l10.5 7.4c17.9 12.7 23.4 16.3 26.2 17.3 3.5 1.3 2.8 2.6-1.2 2.3-1.6-.1-3 .1-3 .4 0 .4-1.2.6-2.8.5-1.5-.1-5.4.7-8.7 1.8-5.9 1.8-8.8 2.7-11.2 3.2-2.8.5-2 1.4 3.7 4.1 3.3 1.6 6 3.2 6 3.7 0 .4.6.8 1.4.8.7 0 1.9.6 2.5 1.4 1.1 1.3 9.8 5.9 12.9 6.8.7.2-4.4 2.3-11.4 4.7-12 4.1-14.6 4.8-16.8 5-1.5.2 4.2 4.6 11.2 8.7 6.8 4 15.3 7.7 20.7 8.9 2.8.6 1.9 1.2-10.9 7.5l-13.9 6.8 4.4 3.2c4.2 3 9.6 5.7 12.9 6.4.8.2 2.2.6 3 .9 2.6 1 9.3 1.9 13.5 1.8 2.4-.1 3.6.1 3 .7-1.7 1.5-14.7 10.6-18.5 12.9l-3.5 2.2 2.8 1c1.6.6 3.2 1.1 3.7 1.1s2.1.5 3.7 1.2c1.5.6 3.3 1.2 3.8 1.4.6.1 3.6.9 6.8 1.8 3.3.8 6.2 1.5 6.5 1.5 2.4-.4 8.4.4 7.2.8-.8.3-2.3 1.4-3.4 2.5-1.1 1-2.5 1.8-3.2 1.8-.7 0-1.4.4-1.6.8-.2.4-4 3.6-8.6 7.1-4.5 3.5-8 6.6-7.8 6.9.3.2 2 .6 3.8.7 6 .4 14.6 2 19.2 3.4 1.7.5 5.2.9 7.9.8 2.6-.2 4.7-.1 4.7.1 0 1.1-16.9 22.5-18.2 23-2.2 1 .7 1.9 4.9 1.6 2.6-.2 8.4-.6 12.8-.8 4.4-.3 8-.5 8-.6 0-.1 1.5-.3 3.3-.5l3.3-.4-3.7 5.2c-2.1 2.9-4.7 6.6-5.8 8.2-1.2 1.7-3.4 4.7-5 6.8-1.6 2.1-2.6 4-2.4 4.3 1.5 1.4 19.1-.3 27.7-2.6 1.9-.5 3.8-.7 4.2-.5.4.3-.2 2.4-1.4 4.8s-2.4 4.9-2.6 5.7c-.7 2.9-2.9 10.6-4.4 15.2-1.3 4.3-.9 6.5.8 3.8.4-.6 1-.8 1.5-.5.7.4 6.4-1.2 11-3.2.8-.3 1.8-.5 2.2-.5.5.1.8-.3.8-1 0-.6.3-.8.7-.5.3.4 3-.7 5.9-2.3l5.3-3.1-.4 9.3c-.2 5.1-.7 10.4-.9 11.8-.3 1.4-.8 3.7-1.2 5.2-.4 2.3-.2 2.7 1.4 2.3 2.5-.4 9.9-3.7 18.4-8 4.9-2.5 6.7-3.1 7.1-2.1.3.7.2 1.8-.2 2.4-.8 1.4-.7 18.9.1 19.8.8.8 9.3-3 14.3-6.4 2.1-1.5 5.9-4.6 8.2-6.9l4.3-4.2-.5 10.7c-.3 5.9-.8 12.7-1.1 15.1-.5 3.5-.3 4.2.8 3.5.7-.5 1.5-.9 1.8-.9 2.2-.3 13.2-6.6 17.4-9.9 7.1-5.8 7.2-5.8 7.4-2.6.1 1.6.7 4.2 1.4 5.7.6 1.5 1.2 3 1.3 3.3.1.3.7 1.7 1.3 3.1.6 1.5 1.4 4.2 1.7 6.1 1.1 6 1.9 6.4 6.1 3.2 2.2-1.6 4.1-3.2 4.2-3.7.9-1.9 2.2-.3 2.2 2.8 0 3.2-.3 3.5-3.7 4.1-6 1.1-11.4 3.8-16.3 8.1-2.5 2.1-6.2 5-8.3 6.2-4.9 3-8.1 6.2-11.3 11.2-1.4 2.2-3.5 4.4-4.7 4.8-2.8 1.2-8.4 6.7-9.2 9.2-.4 1-.9 1.9-1.3 1.9-2.3 0-8.2 7.5-8.2 10.4 0 .8-1.9 2.5-4.2 3.8-4 2.2-11.3 11.2-10.3 12.7.6 1-4.1 9.6-5.1 9.4-.5 0-2.5.6-4.4 1.4-2.1.9-6.5 1.5-11 1.6-4.1 0-8 .4-8.7.9-.7.6-4.2 1-7.8 1-3.6 0-6.5.4-6.5.9s-1.1.4-2.4-.2c-2.6-1.2-2.5-3.2.6-8.5 1.5-2.5 1.6-3.7.8-6.1-.6-1.7-1-3.4-.8-3.9.5-2-3.7-8.7-6.6-10.5-4.1-2.5-10.4-4.2-12.5-3.3-.9.4-2.7.9-4.1 1.1-1.4.2-3.9 1.3-5.6 2.4-3.2 2-4.4 1.7-4.4-1.1 0-1-1.1-2.9-2.6-4.3-2.5-2.5-2.5-2.5-.4-3.2 3.1-1 14.7-9.1 19.6-13.7 4.5-4.3 9.4-10.7 9.8-13 .1-.7.4-1.8.8-2.3.4-.6 2-6.6 3.7-13.4 3.3-13.1 5.6-19.2 9.2-24.2 1.2-1.7 1.9-3.3 1.6-3.6-1.5-1.4-22.2 7.5-27.9 12-6.1 4.9-11.5 8.7-12.4 8.7-.5 0-.9-3.5-1-7.8-.1-11.1-1.3-35.4-1.8-35.9-.4-.4-7.1 8.7-7.4 10-.1.4-.8 1.4-1.6 2.2-.8.8-2.4 3.1-3.7 5.2-1.3 2.1-2.5 4-2.9 4.3-3.2 2.9-16.2 28.6-18 35.8-.9 3.3-2 5.2-3.1 5.5-2.8.8-2.9-.1-.4-5.6 3.1-6.9 3.6-9.9 4-24.8.3-9.4 0-13.8-1.1-17.5-.9-2.7-1.7-9-1.7-14.1-.1-5.1-.5-9.3-.8-9.3-1.5 0-15.1 15.1-17.1 19-.7 1.4-1.9 3.1-2.5 3.8-.7.7-1.3 2.2-1.3 3.2s-.4 2-.8 2.2c-1.1.4-5.3 12.8-4.7 13.8.3.4-1.3.8-3.5.8-4.5.1-8.5 2.4-10.4 6l-1.3 2.6-1.3-2.4c-2.4-4.5 0-16.3 3.1-14.5.3.3 2.3-1 4.3-2.8 6.8-5.9 5.5-15.7-2.7-20.3l-3.8-2.1 6.9-5c7.8-5.7 10.1-9.6 13.2-22.2 1.8-6.9 2.6-18.9 2.2-29.4-.2-4.1-2.6-5.2-3.7-1.7s-4.9 6.8-9.5 8.4c-2.4.8-4.7 1.3-5.2 1-.4-.3-.8-.1-.8.3 0 .5-1 .9-2.1 1-1.2.1-4 1.4-6.3 2.9-3.9 2.6-12.6 4.1-12.6 2.1 0-.4 3.8-4.6 8.5-9.3 9.3-9.4 11.6-12.8 12-18.3.2-2 .4-3.6.5-3.6 0 0 .2-5.9.4-13 .4-13.5 1.8-22.4 4.3-26.1 4.3-6.6-8.3-.5-17.2 8.3-5.7 5.6-11.1 13.1-12.9 17.8-.6 1.6-1.2.7-3-4.5-1.2-3.9-4.2-9.5-7.2-13.5-4.7-6.3-8.7-13.1-8.3-13.7.3-.5-1.2-5.1-2.4-7.8-.6-1.4-2.4-3.7-3.8-5.2-1.5-1.4-2.5-2.9-2.1-3.2.3-.3 0-.6-.6-.6-.7 0-1.2.6-1.2 1.2-.1.7-.3 6.2-.5 12.3-.3 7.8-1.2 13.9-3.1 21-4 15.2-4 29 0 40 2.7 7.3 8.4 14.3 17.8 22 3.7 3 4.2 4.3 3.9 10l-.2 3-2-2.5c-9.8-12.1-14.1-14.9-38.6-25-5.7-2.3-10.3-4.6-10.3-5 0-.5-.8-1.1-1.7-1.4-1-.3-2.7-1.9-3.7-3.5-3.4-5-4.5-3-3 5.7 2.2 13.7 3.7 19.7 5.5 21.7.5.5.9 1.5.9 2.2 0 2.2 6.7 11.8 10.7 15.3 4 3.5 17.9 10.5 22.6 11.4 1.5.2 3.5.7 4.5 1 .9.3 2.8.7 4.2 1 3.3.5 9.6 3.2 10.3 4.2.3.5-1.3.9-3.6 1-3.3 0-4.5.6-6.9 3.4-1.5 1.9-2.8 4.4-2.8 5.5 0 1.9-.6 2.1-5 2.1-2.7-.1-5-.4-5-.8 0-.3-.8-.4-1.7-.2-1 .2-5.2.6-9.3.8-4.1.2-7.7.5-8 .6-.3.1-1.5.1-2.7.1-2.7-.3-3.9 1.6-1.5 2.4 3.1.9 7.4 6.6 12.4 16.2l4.6 9.1-2.6 1.3c-4.2 2.1-9.1 8-9.8 11.7-.8 3.9-.2 4.7 2.3 3.4 3.8-2 16.3.9 16.3 3.8 0 .6.7 1 1.5 1s1.5.4 1.5.8c0 .5 2.4 2.6 5.3 4.8 5 3.7 5.2 4 4 6.4-2.1 4.2-1.6 9.4 1.2 12.4 2.9 3.1 3 3.6 1 3.6-.8 0-1.5.4-1.5.8 0 .7-5.7 3.6-9.2 4.7-.5.1-.9.3-1 .5-.2.1-1.1.3-2.1.5-3.4.6-4.7 1.4-4.7 2.8 0 .7 1 1.3 2.3 1.4 4.4.1 7.9 1.2 15.5 5 4.2 2.1 8.6 3.9 9.7 4 1.1.2 4.1.6 6.8 1l4.7.8-2.5 2.7c-1.4 1.5-2.5 2.9-2.5 3.2 0 1-9.4 10.2-13.3 13.1l-3.9 2.9 4.7 1.8c6.3 2.5 10.5 3.1 19.5 3.1 6.3 0 12.5-.7 12.5-1.3 0-.1.8-.3 1.8-.5 3.2-.6 14.2-6.2 18.7-9.6 4.2-3.1 7.4-3.8 9.3-1.9.5.4-.9 1.8-3 3-7.2 4.1-22.7 30.1-24.7 41.5-.3 1.7-.8 4.2-1.2 5.7-.3 1.6-.2 2.8.3 2.8 2 0 11.9-3.3 13.2-4.4.8-.6 1.6-1 1.8-.8.2.1 2.5-.9 5.1-2.2l4.9-2.5-.1 8.2c0 4.5.3 10.2.8 12.6.8 4.6 4.5 12.1 5.9 12.1 1.8 0 13.1-12.9 16.8-19 2.1-3.6 4.6-9.5 5.6-13.1l1.7-6.6 4.6 4.7c5.1 5.3 12.3 9.3 13.8 7.8.6-.6 1.7.4 3 2.6 4.5 7.5 15 9 25.6 3.5 6-3.1 10.4-6.6 13.5-10.9l2.8-3.9 8.1 8.2c8.8 8.9 14.2 15.8 14.2 18.2 0 .8.5 1.5 1.1 1.5.5 0 .7.4.4 1-.3.5-.3 1 .2 1 .7 0 2 3.2 3.9 9.5 1.3 4.1 3.1 17.1 2.7 19.5-.5 3.4-.5 4.2.1 6.5.2 1.1.5 2.6.5 3.3.2 2.2 9.8 11 13.6 12.2 6.8 2.3 8.6-2.4 5.6-15.1-5.5-23.7-12.2-38.7-23.5-52.4-3.9-4.8-14.9-16.5-25-26.6-4.9-5-5.3-6.1-2-5.9 1.1.1 6.9.3 12.9.6 22.1.8 32.1 1.9 38 4.4 1.7.6 4.4 1.4 6 1.7 6.4 1 7.5 1.2 8.4 1.8 1.9 1.1 10.6 1.4 15.6.4 2.7-.5 9.1-1.1 14-1.3 11.1-.5 17.8-2 21.9-4.9 1.7-1.2 3.8-2.3 4.6-2.4.8-.1 2.9-.5 4.5-.8 1.7-.4 3.5-.8 4-.9 6.6-1.4 12.1-4.6 20-11.6l4-3.5H403c13.7.1 16.6.6 15.6 3.1-.8 2 2 11.6 4.8 16.7l2.6 4.5-5.3 3.4c-6 3.8-5.9 3.7-15.2 11.5-7.1 5.9-15.2 14.1-16.9 17.1-.6.9-2 2.8-3.3 4.2-1.3 1.4-2.3 2.8-2.3 3.1 0 .3-.9 1.6-2 2.9-1.1 1.3-2 2.9-2 3.7 0 .7-.4 1.3-.9 1.3s-1.3 1-1.7 2.2c-.4 1.3-1 2.5-1.3 2.8-1.9 1.4-13.3 29.8-12.3 30.4.4.2 1.6.2 2.7-.1 1.1-.2 3.6-.6 5.5-.9 5.9-.8 11.2-2.5 16.2-5 2.7-1.3 4.8-2.2 4.8-1.9 0 .3-.8 2-1.7 3.8-.9 1.8-1.8 3.6-2 4.2-.1.5-1.4 4.4-2.8 8.5-1.6 4.4-2.9 10.9-3.2 15.8l-.6 8.3 2.4-.5c7.1-1.3 15.7-6 19.8-10.8 1.3-1.5 2.7-2.8 3-2.8.4 0 .4 3 .1 6.7-.8 8.7-.3 27 .7 28.8 1.5 2.6 16.6-3.8 21.3-9.1 2.8-3.2 6-4.8 4.4-2.2-.8 1.2-.6 9.4.2 13.2.3 1.1.7 3.4 1 4.9 1 5.2 3.4 9.7 5.2 9.7 5.4 0 12.6-3.4 17.3-8l4.8-4.8 2.8 5.6c1.5 3.1 5 7.9 7.7 10.7l4.9 4.9 2.3-2.9c2.9-3.6 7.9-14 8.9-18.4.7-3.2 2.5-4.3 2.5-1.6 0 .8.5 1.5 1 1.5.6 0 1 .5 1 1.1 0 1.4 8.6 9.9 10 9.9.5 0 1 .4 1 .8 0 .5 1.5 1.5 3.4 2.4 3.1 1.5 3.4 1.5 4.9-.3 3.2-3.6 6.3-16.5 6.7-26.9.1-3.9.3-4.3 1.3-2.6 1.9 3 9.3 10.6 10.4 10.6.5 0 1.8.9 2.8 2 1 1.1 2.6 2 3.7 2 1 0 1.8.5 1.8 1.1 0 2 4.5.5 4.6-1.6.1-1.1.3-2.2.4-2.5 1.3-3.6 1.8-16.7.9-23.9-1-7.9-2-13.4-2.6-14.6-.3-.6.6.2 2.1 1.7 1.4 1.5 2.6 3.3 2.6 3.9 0 .7.3 1 .6.6.3-.3 1.8.5 3.3 1.9 3.1 3 13.4 9.4 15 9.4.6 0 1.1.4 1.1 1 0 .5.9 1 2 1 2 0 2.1-.4 1.6-6.8-.6-7-1.3-13.3-2.1-16.7-.2-1.1-.6-3.1-.9-4.5-1.2-5.9-3-11.6-4-12.9-1.3-1.8.2-1 4.9 2.5 3.9 2.8 11.6 5.5 18.2 6.1l5.2.5-.4-5.1c-.5-7.6-1.6-13.4-2.7-14.9-.6-.6-.7-1.2-.4-1.2.7 0-4.8-11.1-6.6-13.5-8.3-10.9-12.1-15.5-12.9-15.5-.5 0-.8-.4-.7-.8.5-1.4-14.8-16.9-25.7-26.2-2.7-2.4-5.1-4.7-5.3-5.1-.2-.5-.8-.9-1.4-.9-.5 0-2-.8-3.3-1.8-2.1-1.6-2.1-2-.9-4.3 2.1-3.7 3.4-9.2 3.5-14.8.1-3 .6-5.1 1.3-5.2.6-.1 6-.2 12-.3l11-.2 3.5 3.4c8.1 7.5 15.7 11.4 25.4 12.8 2.3.3 5.8 1.6 7.7 2.9 5.8 3.7 8.7 4.3 22 5 4.7.2 10.6.8 13.1 1.3 6 1.2 16.6.7 18.5-.9.8-.6 1.7-.9 2-.7.7.7 8-.9 11.9-2.7 5.1-2.2 18.2-3.6 35.4-3.6 5.7 0 11.2-.4 12.2-.9 3.2-1.8 4.6-.3 4.4 4.6-.1 2.5-.6 4.9-1.1 5.2-.5.4-.9 1.3-1 1.9-.1.7-.2 1.7-.2 2.1-.1.4-3.6 3.2-7.7 6.2-4.2 3-11 8.1-15.3 11.2-4.6 3.4-8.3 5.5-9.2 5.2-.8-.3-2.2-.7-3-.9-.8-.2-2.7-.6-4.2-1-2.1-.5-3.6 0-7.2 2.7-2.4 1.8-7.9 5.8-12.2 8.8-4.2 3-8.2 6-8.8 6.5-.6.6-4.8 3.7-9.3 6.8-4.5 3.2-8.5 6.2-8.8 6.7-.3.4 2.6 1.3 6.5 2 6.8 1.2 8.7 2.4 5.4 3.7-1.5.6-1.5.7 0 1.9 1.6 1.1 1.7 2.8.6 7.9-.6 2.5.3 3.1 4.5 2.9 3.3-.1 4.8.3 5.4 1.5.5.9 1.3 1.5 1.8 1.4.4-.1.7.5.7 1.2-.1 1.1.3 1.2 1.5.5 1.5-.8 1.7-.2 1.7 4.8-.1 5.5 0 5.7 2.4 5.3 5.2-.8 7.5-.6 7.2.7-.1.8.2 1.1.7.8.5-.4 1.2-.2 1.5.3.3.5 1.5.7 2.5.4 1.7-.4 2.1.2 2.7 4.4.9 6.6 1.3 7 3.7 3.1 1.4-2.4 2.1-2.9 2.5-1.8.7 2.2 2.4 3 4.9 2.3 1.7-.4 2.3-.1 2.3 1.1 0 2.1 1 2 2.6-.2 1.3-1.6 1.3-1.6 1.4.3.1 4.2 1.5 5 4.8 2.6l3-2.1 1.1 3.2c.6 1.8.9 4.8.6 6.6l-.4 3.2 5.3-3 5.4-2.9 1.5 2.2c1.4 1.9 1.6 1.9 1.6.4.1-2.9 1.5-1.9 4.5 3.5 3.1 5.6 4.1 5.3 5-1.3.2-1.9 1.2-6.6 2.1-10.4 2.3-9.5 2.5-10.6 3.1-13.5.2-1.4.7-3.6 1-5 2-8.8 2.4-10.2 3-13.4.2-1.6.7-3.3 1-3.8.3-.4 0-.8-.5-.8-.6 0-1.1-.4-1.1-1 0-.5-1.1-2.6-2.5-4.6-2.5-3.7-2.6-6.2-.5-11.9.8-2 .7-2.4-.3-1.9-.9.6-.9.4-.1-.7.6-.8 1.5-2.8 1.9-4.4.5-1.7 1-3.7 1.2-4.5.3-.8.6-2.4.8-3.5.2-1.1.4-2.1.5-2.3.4-.3.7-2 .9-3.6.1-1 .9-1.3 2.9-.9 2.4.5 7.9.5 11.7.1 1.6-.2 7.9-5.6 8.6-7.5.2-.6 1.8-1.3 3.6-1.6 1.7-.3 3.8-.9 4.5-1.3 8-4.6 13.7-12.9 11.5-16.5-1-1.6-.5-2.4 3-5.4 6.9-5.9 8.7-16.1 3.9-21.4-.9-1-1.6-2.3-1.6-2.9 0-.6-1.1-2.3-2.5-3.7-1.4-1.4-2.2-2.5-1.8-2.5.4 0 .2-.4-.5-.9-1.7-1.1-2.3-.6 14.8-13.2 7.4-5.5 14.2-10.6 15-11.2.8-.7 2.7-2 4.1-2.9 1.4-.9 3.4-2.4 4.3-3.3.9-.9 1.6-1.3 1.6-.8 0 .4.4.3.8-.3.4-.7 3.2-3 6.2-5.2 6.5-4.8 16-11.8 29-21.4l9.5-6.9.9 3.3c1.3 4.5 1.2 4.5 4.2.8 1.5-1.8 3.2-3.7 3.8-4.4 2.2-2.3 14.2-16.2 15.4-17.8 1.1-1.4 1.1-1.6-.8-1.1-1.1.3-2.3.9-2.6 1.4-.3.5-1.2.9-2.1.9-.8 0-3.1.7-5.1 1.6-6.2 2.7-10.9 4.5-12.8 4.9-.5.2-2.9 1.1-5.2 2.2l-4.2 1.9 3.5 1.7c2 1 3.3 2.1 3 2.7-.3.5-7.2 5.7-15.3 11.7-8.1 5.9-15.1 11.1-15.7 11.5-.5.5-4.1 3.2-8 5.9-7 5.1-10.4 7.6-15.3 11.5-1.5 1.1-5.8 4.3-9.7 7-3.8 2.7-8.1 5.9-9.5 7.1-1.4 1.3-2.8 2.3-3.1 2.3-.3 0-2.6 1.5-5 3.4-2.3 1.9-4.7 3.2-5.3 2.9-.5-.3 0-1.2 1-2s3.5-2.8 5.4-4.6c1.9-1.8 7.1-6.4 11.5-10.2 9.9-8.6 13-11.3 16.5-14.5 1.5-1.4 5.1-4.6 8.1-7.1 3-2.6 6.5-5.7 8-7 1.4-1.3 5.8-5.3 9.9-8.9 4-3.6 8.3-7.4 9.6-8.5 2.6-2.4 5.7-5.1 14.9-13 3.8-3.3 7.6-6.7 8.5-7.5.9-.8 4.7-4.2 8.5-7.5 3.7-3.3 7.3-6.5 7.9-7.1.8-.9 1.4-.4 2.2 1.9 1 3.1 3.4 4.9 3.4 2.7 0-.6.6-1.8 1.3-2.5 3-3.4 3.5-4.3 3-4.9-.4-.3-.1-.6.5-.6s2.1-1.8 3.2-4 2.4-4 2.9-4 1.4-1.3 2.1-3c.7-1.6 2.1-3.9 3.1-5.1 1-1.2 1.9-2.6 1.9-3 0-.7-14 6-15 7.2-.3.3-3.2 1.9-6.5 3.5s-6.2 3.1-6.5 3.5c-.3.3-1.2.8-2 1.1-1 .3-.5 1 1.8 2.2 1.8.9 3.8 1.4 4.5 1.1 1.5-.8-4.6 4.9-13.8 13-3.7 3.3-8 7.1-9.5 8.5-1.5 1.4-3.8 3.4-5.1 4.5-1.3 1.1-4.3 3.8-6.7 5.9-5.3 4.8-4.8 3.3 3.5-10.3 3.5-5.7 9-13.1 12.3-16.5 3.2-3.4 13.1-13.4 21.9-22.4l16-16.2 2 3.7c1.2 2.3 2 3.1 2.1 2 0-.9.3-1.7.8-1.7.4 0 1.6-1.7 2.7-3.8 1.1-2 2.2-3.9 2.5-4.2.3-.3 1.1-1.6 1.8-3s2.1-3.9 3.2-5.5c1.1-1.7 2.3-3.7 2.7-4.5.3-.8 1.5-2.7 2.5-4.2 1.8-2.6 1.8-2.7.1-2.1-1 .4-3.7 2-5.9 3.5-2.3 1.5-4.7 2.8-5.3 2.8-.6 0-1.1.4-1.1 1 0 .5-.7 1-1.5 1s-1.5.4-1.5 1c0 .5-.5 1-1 1-.6 0-3.8 1.7-7.2 3.9l-6 3.8 3.3 1.3c1.9.7 3.9 1.2 4.4 1.1.6 0-9.6 10.6-22.5 23.7-18.6 18.9-25.2 24.9-31.7 28.9-4.4 2.9-8.4 4.9-8.6 4.6-.3-.3.9-2 2.6-3.7 1.8-1.8 5.5-5.9 8.2-9.1 10.9-12.5 12.8-14.5 13.6-14.5.5 0 .8.3.7.7-.1.5.4 1.9 1.1 3.2l1.3 2.3 1.2-2.3c3.8-7.4 11.2-21 13.3-24.7 2.6-4.4 1.7-5.6-1.7-2.2-1.1 1.1-2 1.7-2 1.3 0-.3-1 .3-2.2 1.4-1.3 1.1-4.5 3.4-7.3 5.1-6 3.9-7.8 5-11.7 7.9l-2.9 2.1 3.5 1.2c2 .6 4.1.8 4.8.4.7-.4 0 .8-1.7 2.6-1.6 1.9-3.4 4-4 4.7-2.2 2.7-3.4 4.1-12.1 13.8-4.9 5.6-11.1 12.7-13.9 16-2.7 3.2-5.9 6.8-7 7.9-1.1 1.2-4.7 5.3-8 9.1-3.3 3.9-7.3 8.4-9 10.1-1.6 1.7-4.2 4.7-5.7 6.5-3.1 3.9-4.1 5.1-12.8 14.9-10.1 11.3-10.1 11.4-11.7 13.7-.9 1.3-2 2.3-2.5 2.3s-.1-1.1.9-2.4c1-1.3 2.5-3.4 3.3-4.6.8-1.2 2-2.8 2.5-3.4.6-.6 3.1-3.8 5.5-7.1 2.5-3.3 4.7-6.2 5-6.5 1.7-1.7 9-12.1 9-12.9 0-.5.7-1.1 1.5-1.5.8-.3 1.5-1.2 1.5-2.1 0-.8.4-1.5.8-1.5s3.9-4.3 7.7-9.6c3.9-5.3 7.6-10.2 8.2-10.9.7-.8 4.7-6 8.9-11.7 4.2-5.7 7.9-10.5 8.1-10.8.2-.2.8.2 1.3 1 .6 1 1.2.4 2.4-2.5.9-2 1.6-4 1.6-4.2 0-.7 7.4-11.6 9-13.3.8-.9 2.6-3.2 4-5.3 1.4-2 2.8-3.7 3.3-3.7.4 0 .7-.5.7-1.1 0-.6.6-1.6 1.3-2.4 1.3-1.4 3.5-4.3 17.3-22.5 5.2-6.9 10.2-13.6 11.2-15 .9-1.4 3.3-4.6 5.3-7.2l3.7-4.8 2 3.1 1.9 3.1 1.6-3.4c1.5-3.2 3.9-8.7 4.2-9.8.1-.3.9-2.3 1.9-4.5 3.1-7 3.9-9 4-9.7.1-.3.4-1 .9-1.4.4-.4.7-1.1.7-1.6 0-1.7-2.4-.7-5.9 2.4-4 3.5-5.7 5-13.6 11.3-8 6.3-8 6.3-4.8 7.2 4.1 1.1 4.7 1 6.1-.7 6.2-7.1-14.4 21-34.3 46.9-3.3 4.3-6.7 8.8-7.5 10.1-.8 1.2-2.8 3.6-4.3 5.4l-2.8 3.1 2.1-4.3c1.1-2.3 1.7-4.2 1.3-4.2-.5 0-.1-.4.7-1 .8-.5 1.2-1.1.9-1.4-.3-.3-1.4.2-2.5 1.2-1 .9-3.7 3-5.9 4.7-2.2 1.6-4.5 3.6-5.2 4.5-2.3 2.8-1.3 0 1.4-4.3 1.5-2.3 3-4.4 3.3-4.7.8-.8 8.4-12.4 8.9-13.5.2-.5 1.9-3.1 3.8-5.7 1.8-2.6 3.3-5.2 3.3-5.8 0-.5.4-1 .8-1 .5 0 1.5-1.1 2.2-2.5 1.3-2.4 1.5-2.4 3.2-.8 1 .9 1.8 2.2 1.8 3 0 .7.3 1.3.8 1.3.7 0 6.3-15 6-16-.1-.3.4-1.6 1.1-2.8.7-1.3 1.5-3.6 1.7-5 .3-1.5.9-3.1 1.3-3.7 1.2-1.5 2.1-5.7 1.1-5.3-.4.2-6.2 5.5-12.9 11.8-11.4 10.6-12.1 11.5-9.9 12.3 1.3.4 3.3.6 4.4.4 2-.3 1.9 0-1 4.2-1.7 2.5-3.3 4.8-3.6 5.1-.3.3-2.1 3-4 6s-4 6.1-4.7 6.8c-.7.7-1.3 1.8-1.3 2.3 0 .5-1 2-2.1 3.2-1.2 1.2-1.9 1.6-1.5 1 .4-.7 1.4-3.8 2.2-6.8.7-3 2.1-8.1 3-11.3.8-3.1 1.6-6.2 1.7-6.7.2-.6.6-1.6 1-2.3 2.3-3.6-1.8-.1-10.1 8.5l-9.4 9.8 4-7.5c2.1-4.1 6.5-12.5 9.7-18.5 3.2-6.1 6.2-11.6 6.8-12.3.5-.6.6-1.2.2-1.2-.5 0-.1-.8.7-1.8.8-.9 3.4-5.5 5.8-10.2 6.5-12.9 6.3-12.7 9.2-9.5l2.5 2.7 1.2-4.4c1.3-4.8 2.1-8.3 2.6-11.3.2-1.1.4-2.2.5-2.5.1-.3.2-.8.1-1.3 0-.4.3-.7.7-.7.4 0 .8-.8.9-1.8 0-.9.4-2.8.8-4.2.4-1.4.7-3.2.7-4 0-.8.5-2.1 1.1-2.8.5-.6.6-1.2.1-1.2-.9 0-1.6.8-13.4 14-3.6 4-7.6 8.4-9 9.6l-2.5 2.4 2.5.1c1.4.1 3.5.2 4.8.2 2.2.1 2.9 1.1 1.5 2.1-.5.2-3 4.9-5.8 10.3-2.7 5.4-5.2 10-5.5 10.3-.3.3-2.6 4.5-5.1 9.5-2.5 4.9-6.5 12.6-8.9 17-2.4 4.4-6 11.4-8.2 15.5-2.1 4.1-5.8 11.1-8.2 15.5-2.3 4.4-7.3 13.8-11 21-3.8 7.1-8.3 15.7-10.1 19-1.8 3.3-5.7 10.7-8.7 16.5-3.1 5.8-7.2 13.6-9.3 17.5-2.1 3.8-5.8 10.9-8.3 15.8-2.5 4.8-4.7 8.5-5 8.3-.2-.3 1.2-3.9 3.2-8.1 2-4.3 3.9-8.8 4.2-10.1.3-1.3 1-2.4 1.5-2.4s.9-.6.9-1.4c0-.7 2-5.6 4.4-10.8 2.5-5.3 4.8-10.7 5.2-12.2.3-1.4 1-2.6 1.5-2.6s.9-.5.9-1.1c0-1.7 8.3-20.3 9.5-21.1.5-.4.7-.8.3-.8-.7 0 1.9-6 8.9-21 1.9-4.1 3.6-8 3.7-8.5.1-.6.6-1.7 1.1-2.5.5-.8 1-1.7 1.1-2 .2-1 4.9-11.7 13.6-30.9l1.9-4.3 2.5 2.3c2.7 2.6 3.1 2.4 3.8-1.6 1.4-7.3 1.8-9.3 2.7-13.3.5-2.3 1.2-5.9 1.5-8 .3-2 .7-4.5 1-5.5 1.1-3.8-1.9-1.2-9.3 8-4.3 5.4-8.8 10.9-10 12.3-3.3 3.5-2.9 4.2 2 3.9l4.4-.4-2.4 4.6c-1.2 2.6-2.3 4.9-2.3 5.2 0 .3-1.6 4.1-3.6 8.4-3.7 8-5.7 12.4-5.8 13.3-.1.3-.4.9-.8 1.5-.3.5-3.2 6.8-6.3 14-3.2 7.1-7.3 16.3-9.1 20.3-1.9 4.1-3.4 7.5-3.4 7.7 0 .2-1.6 3.9-3.6 8.2-3.8 8-8.7 19.3-13.1 29.8-1.4 3.3-3 6.3-3.7 6.7-.6.4-.7.8-.3.8.5 0 .2 1.2-.6 2.7-2.5 4.8-7.4 15.6-8.8 19.5-.7 2.1-1.7 3.8-2.2 3.8-.4 0-.6.3-.4.7.3.5-.6 2.8-1.9 5.3-2.6 5.1-3.2 4.7-.9-.6.8-1.9 1.4-3.5 1.4-3.7 0-.1.4-1.5 1-3 .6-1.6 1.1-3.1 1.1-3.4 0-.5 7.4-22 8.7-25.3.3-.8.7-2 .9-2.5.3-1.4 14.2-41.7 21-61 3.1-8.8 5.6-16.6 5.7-17.3.1-1.7.4-1.6 3.5 1.3 1.5 1.4 2.9 2.5 3.2 2.5.3 0 .6-1.7.6-3.8.4-11.8 1.5-29.6 2-30.3.3-.5.1-.9-.5-.9-.5 0-1.3.9-1.6 2-.3 1.1-1 2-1.5 2-.4 0-1 .8-1.4 1.7-.3 1-1.7 3.6-3.1 5.8-1.4 2.2-2.8 4.7-3.2 5.5-.3.8-1.3 2.3-2.1 3.2-.8 1-1.1 1.8-.6 1.8.5 0 .5.4-.1.8-.5.4-2 2.1-3.3 3.9l-2.2 3.2 4.3-.3 4.4-.3-2.9 8.1c-1.6 4.5-3.1 8.8-3.5 9.6-.8 1.8-.7 1.7-1.7 5.8-.4 1.8-1.4 4.5-2.2 6.2-.8 1.6-1.7 3.7-1.9 4.7-.2 1-3.1 9.7-6.5 19.3-3.4 9.6-6.3 18.3-6.5 19.2-.2.9-.8 2.5-1.4 3.6-.6 1.1-.7 2.2-.4 2.6.3.3.1.6-.5.6-.7 0-1.1.3-1 .7.2 1.1-1.1 5.3-7.2 22.3-2.8 8-5.2 15-5.2 15.7-.1.7-.5 1-1 .7-.4-.3-.4-1.3.1-2.2.8-1.5 3.5-10.5 4.6-15.7 1.2-5 1.5-6.6 1.9-8.2.5-1.8 3.9-15.5 5.8-22.8.5-2.2 1.1-4.7 1.3-5.5.2-.8.4-1.5.5-1.5.1 0 .3-1 .6-2.3.2-1.3 2.3-9.6 4.5-18.5 2.3-8.9 4.2-16.8 4.2-17.5.1-1.8 1.8-1.5 4.4 1 1.3 1.2 2.4 1.7 2.4 1.2.6-4.9.3-33.4-.4-33.1-.8.2-15.6 27.4-15.7 28.7 0 .8 4.3.6 5.6-.2 2.3-1.5 2.1.6-.7 10.9-1.5 5.8-2.8 10.8-2.7 11.2.1.3-.1 1.3-.5 2.1-.4 1.3-1.4 4.7-2.2 8.5-.2.5-1.7 6.6-3.4 13.5-1.8 6.9-3.4 13.2-3.6 14-3.9 16-10.5 41.9-11 43.2-1 2.5-2.2 2.2-2.9-.7-.7-2.9-7.1-7.5-10.4-7.5-1.3 0-3.3-.5-4.4-1.1-4.7-2.5-16.3 3.9-18.3 9.9-.4 1.3-.8 3.4-1 4.5-.1 1.2-.6 2.9-1 3.9-.3.9.3 3.5 1.4 5.9 3.6 7.4 3.4 7.7-6.5 7.3-4.8-.2-9.2-.8-9.8-1.2-.6-.5-4.7-.9-9.1-.9-5.2 0-9.2-.6-11-1.5-1.7-.9-3.5-1.3-4.2-1.1-.6.2-1.4-1-1.8-2.6-.4-1.7-1.4-3.5-2.3-4.1-.9-.5-1.4-1-1-1 .4 0 0-1.9-.9-4.3-1.8-4.4-7-10.1-10.3-11.2-1.1-.3-2.8-2.6-3.9-4.9-1-2.4-3.5-5.6-5.5-7.2-2-1.6-3.6-3.4-3.6-4.1 0-1.5-8.9-9.3-10.6-9.3-.7 0-1.6-.9-1.9-2.1-1-3.1-7.4-9.8-12.1-12.9-2.3-1.4-6.2-4.3-8.8-6.4-5.2-4.5-8.3-6.1-12.5-7.1-2.4-.5-3.1-1.2-3.1-3.1 0-2.9.1-2.9 3-.4 1.3 1.1 2.6 2 3 2 .4 0 1.5-2.9 2.4-6.4 1-3.5 2.4-7.6 3.2-9.2.8-1.6 1.7-4.6 1.9-6.7.2-2.2.6-4.1.8-4.3.2-.2 1.5.5 2.8 1.7 1.3 1.1 3.3 2.8 4.5 3.8 2.4 2.1 12.1 7.5 17.1 9.6l3.5 1.5-.7-2.9c-.3-1.6-.8-6.5-.9-10.9-.2-4.4-.6-8.4-.9-8.9-.3-.5-.2-1.5.2-2.2.5-.7.6-2.1.4-3.1-.3-1.1 1.6.2 4.7 3.1 5.5 5.2 14.8 11.1 19.3 12.3 2.6.6 2.7.5 2.8-3.1.2-6.1.2-11.6-.1-15.3-.3-5.3-.3-5.3 3.3-3.2 3.8 2.2 18.1 8.7 21.4 9.6 2 .6 2.1.5 1.2-3.1-.5-2.1-1.1-8.6-1.5-14.5l-.6-10.8 7.6 4c4.2 2.1 7.6 3.8 7.6 3.6 0-.1 3 .8 6.8 2 3.7 1.3 6.8 1.9 7 1.4.6-1.7-5.9-21.9-8.8-27.2-1.3-2.3.1-2.9 4.1-1.7 3.9 1.1 11.7 2.2 17.1 2.3 2.1.1 3.8.3 3.8.6 0 .4 3 .4 7.4.1.5-.1.1-1.1-1-2.3-3.5-3.9-15.4-20.8-15.4-21.8 0-.5 1.7-.7 3.8-.4 6.2.9 24.7 1.9 27.6 1.5.5-.1-.4-1.3-1.9-2.9-3.8-3.7-15.3-18.5-15.7-20.1-.2-1 1.3-1.4 5.2-1.6 3-.1 8.4-1 12-1.8 3.6-.9 9.1-1.9 12.2-2.2 4.4-.6 5.4-1 4.5-1.9-1-1-4.5-3.7-21.3-16.3l-2.9-2.2 3-.1c6.1-.3 9.6-.9 13.2-2.1 2.1-.7 4-1.3 4.3-1.4 3.1-.5 13-4.1 12.8-4.7-.4-1-9.9-7.9-16-11.5-5.5-3.2-5.9-4.1-2-4 2.4 0 9.3-.9 14.4-1.8.9-.2 2.6-.9 3.8-1.5 1.2-.6 3-1.3 4-1.5 1.1-.2 3.4-1.4 5.2-2.7 7.4-5.2 7.9-4.3-7-11.8-7.6-3.8-13.5-7-13.2-7 .3-.1 1.6-.3 2.9-.6 8-1.5 31.6-14.3 30.8-16.8-.2-.5-1.3-1.1-2.5-1.2-3.7-.6-4.7-.9-5.2-1.5-.3-.3-5.3-2.1-11.3-4.1-9.4-3.1-10.3-3.6-7.7-4.2 1.7-.3 5.5-2.1 8.5-4.1 3.1-1.9 6-3.5 6.5-3.5.6 0 1-.4 1-.9s.8-1.2 1.8-1.5c2.6-1 10.8-5.5 10.2-5.6-.3-.1-1.6-.3-3-.6-1.4-.2-4.2-1.1-6.2-1.9-2-.8-4.7-1.7-6-1.9-1.3-.3-3.4-.8-4.8-1.1-1.4-.4-4.9-.7-7.7-.7-2.9-.1-5.3-.3-5.3-.4 0-.2 2.4-1.6 5.3-3 5.6-2.9 15-9.2 15.5-10.6.2-.4 1-.8 1.7-.8.8 0 1.8-.6 2.2-1.3.4-.6 4.1-3.4 8.1-6.1 3.9-2.6 7.2-4.9 7.2-5 0 0-9.3-.1-20.8-.1-11.4.1-21.5-.1-22.4-.3-1.9-.5-2.5-2.2-.7-2.2 1.3 0 14.2-7.5 16.1-9.3.7-.7 2.8-2.2 4.6-3.2 1.7-1.1 3.2-2.3 3.2-2.7 0-.4.7-.8 1.5-.8s1.5-.3 1.5-.8c0-.4 2.3-2 5-3.6 4.8-2.9 5.6-4.5 2.2-4.4-.9 0-5.5-.3-10.2-.7-4.7-.4-12.6-.8-17.7-.8s-9-.4-8.7-.9c.3-.4 1.1-.8 1.8-.8 2.4 0 26.1-12.6 33.7-17.8 8.1-5.6 11.8-8.7 19.4-16 5-4.9 11.9-13.2 9.7-11.8-1.5.9-32.2 1.6-32.2.7 0-.4 1.7-1.5 3.8-2.6 12.3-6.5 34.6-25.2 45.4-38 1.6-2 1.6-2-2-2-2 0-6.4-.5-9.6-1.2-3.3-.7-6.3-1-6.7-.7-.4.2-.9-.1-1.1-.8-.3-.7 1.7-2.4 4.3-3.8 9.2-4.8 14.9-8.3 14.9-9.2 0-.4.5-.8 1.1-.8 2.6 0 24.9-20.5 24.9-22.9 0-.6.4-1.1.8-1.1.5 0 2.1-2.2 3.6-4.9l2.6-4.9-5.2-1.1c-8.7-1.7-15-1.9-20.3-.5-5.1 1.3-7.8.9-5.4-.8 2.1-1.5-10.9 0-17.2 1.9-3 .9-5.9 1.7-6.5 1.9-1.8.3-13.3 5.5-18.4 8.2-2.5 1.4-10.1 6.4-17 11.2-6.9 4.8-14.7 10-17.5 11.6-2.7 1.6-5.9 3.4-7 4.1-1.1.7-2.7 1.5-3.5 2-5.9 2.8-20 11.5-36.5 22.5-13.6 9-16.3 10.9-19 13.5-.8.7-1.8 1.3-2.4 1.3-.5 0-1.4.6-1.8 1.3-.4.8-2.1 2.2-3.8 3.3-1.6 1-3.2 2.1-3.5 2.4-.5.6-11.3 9.6-14.3 12-7.2 5.7-29 26.8-37.3 36.2-3.4 3.8-5.9 7.8-4.8 7.8.3 0 .1.7-.6 1.5s-1 1.5-.6 1.5c1.5 0-9.3 18.2-12.4 21-1.4 1.3-4 6.1-4 7.5 0 .8-.5 1.5-1.2 1.5-.6 0-.9.2-.6.5.3.3-.1 3.1-.8 6.3-2 8.2-1.7 13 1 18.7 2.5 5.4 4.9 7.9 11.1 11.7 2.3 1.4 4.1 3.4 4.2 4.5.1 1 1.4 4.6 2.9 7.9 2.1 4.5 2.8 7.7 3 13.4.1 4.1.5 9.1.9 11 .3 1.9.7 4.4.9 5.5.2 1.1.9 3.2 1.5 4.7.6 1.6.7 2.8.2 2.8-.8 0-3.8 6.3-4.3 9.2-.4 2-8.8 11.8-17.8 20.8-10.8 10.7-13.8 12.8-17.7 12.4-1.3-.1-3.4-.2-4.7-.3l-2.5-.1.1-14.4c0-8-.3-15-.7-15.5-.3-.6-.2-1.1.4-1.1.5 0 .8-.8.6-1.8-.2-.9-.4-3.2-.4-4.9-.1-3.2-.3-3.3-3.9-3.1-2.2 0-4.4-.2-5-.6-.7-.4-1.2-.4-1.2.1 0 .4-6.6.7-14.7.7l-14.7-.1-2.8-4.2c-1.6-2.2-2.7-4.1-2.5-4.1.3 0 0-1.9-.5-4.3-1.9-8.3-1.9-8.4 1.8-3.9 4 4.7 7.9 7.1 10.8 6.6 5.1-.8 7.4-1.8 11.3-5 4.5-3.7 6.2-7.4 6.8-15.1 1.6-18 3.1-21.3 16-34.8 8.6-9 11.5-14.8 12-24.4.3-6.1-2.3-24.9-4.1-29.6-1.2-3.2-6.6-7.4-10.4-8.2-1.9-.4-3.8-.8-4.2-.9-.5-.1-2.1-.2-3.8-.3-3.2-.1-3.8-1.4-1.7-3.5.6-.7 2.1-2.6 3.2-4.1 2.1-3.1 16.4-17.6 25.7-26.1 16.5-15.1 33.9-27.4 51.8-36.3 10.1-5 18.5-8.7 18.5-7.9 0 .1 1.4-.5 3-1.4 3.1-1.7 12.4-4.9 25-8.7 9.4-2.9 16.3-6.1 17-8 .4-.9.9-8.3 1.1-16.6l.4-15 6.3-5.8c21.2-20 21.5-20.3 22.1-25.7.5-4-.3-6.4-4.1-12.2-1.5-2.4-2.8-4.5-2.8-4.8-.1-.3-1-2.5-2.2-5-1.7-3.8-3.2-7.7-3.8-10-.1-.3-.5-1.9-.9-3.5-2.7-10.1-5.3-15.9-8.1-18.1-3.8-2.9-7.3-4.1-10.6-3.6zm-269 262.1c.9.6 1.2 2 .8 4.2-1.6 9.7-2.4 11.6-7.6 16.9-2.9 3-6.1 7.3-7.1 9.6-2.5 5.3-4.3 6.9-5.9 5-1.3-1.5-.5-8.9 1-9.4.5-.2.9-.7.9-1.2s1.5-3.5 3.4-6.7c3.7-6.2 7.1-16.6 6.1-18.3-.8-1.2 6.4-1.3 8.4-.1zM98.8 613c-.2 6.5-1.8 7.1-1.8.7 0-3.6.4-5.6 1-5.2.5.3.9 2.4.8 4.5zm732.2 4.5c0 .8-.5 1.5-1.1 1.5-.5 0-.7.4-.4 1 .3.5.1 1-.4 1-.6 0-1.1.5-1.1 1 0 .6-1.6 3.5-3.4 6.5-1.9 3-4.4 7.1-5.6 9.2-1.1 2.1-3.2 5.6-4.5 7.8-1.4 2.2-3.2 5.6-4.2 7.5-.9 1.9-2 3.7-2.3 4-1 .9-8 13.1-8 14.1 0 .5-.5.9-1.1.9-.5 0-.7.4-.4 1 .3.5.1 1-.4 1-.6 0-1.1.4-1.1.9 0 1.2-8.2 14.5-9.2 14.9-.5.2-.6.8-.2 1.3.3.5 0 .9-.5.9-.6 0-1.1.9-1.1 2s-.3 2-.8 2c-.4 0-1.6 1.7-2.7 3.7-2.6 5-7.5 12.9-7.5 12.1 0-.4 3.2-6.6 7.2-14 3.9-7.3 8.7-16.5 10.7-20.3 2-3.9 3.9-7.2 4.4-7.3.4-.2.7-1.1.7-2.1 0-.9.4-2.1.9-2.7.9-1 5.6-9.6 14.2-26.4 3-5.8 5.6-10.7 5.9-11 .3-.3 1.8-3.1 3.4-6.3 2.5-5 3.2-5.7 5.7-5.7 1.9 0 2.9.5 2.9 1.5zm5.7 3.8c.9 2 .4 3.4-3.7 9.7-5.1 7.7-9.4 12.3-10.4 11.3-.3-.4-.6-.1-.6.5 0 .7.5 1.2 1.1 1.2 1 0-2.4 6.3-4.7 8.8-.7.6-1.6 2.1-1.9 3.2-.3 1.1-1.1 2-1.6 2s-.9.7-.9 1.5-.4 1.5-1 1.5c-.5 0-1 .7-1 1.5s-.4 1.5-.9 1.5-1.4 1.3-2.1 3c-.7 1.6-1.6 3-2.1 3s-.9.5-.9 1.1c0 .6-.9 2.3-2.1 3.7-1.1 1.5-7.2 10.6-13.5 20.2-6.4 9.6-12.1 17.9-12.7 18.5-.6.5-.4-.1.5-1.5.8-1.4 2.1-3.6 2.9-5 .8-1.4 1.7-2.7 2-3 1-.9 8.9-15.2 8.9-16.1 0-.5.4-.9.8-.9s1.8-1.9 3-4.3c1.2-2.3 2.6-4.9 3.2-5.7 4.2-6.6 14.5-24 19.4-33 1.6-3 3.2-5.7 3.6-6 .4-.3 1-1.2 1.4-2 .4-.8 1.2-2.4 1.9-3.5s2.7-4.6 4.5-7.8c3.6-6.2 5.3-7 6.9-3.4zM111.5 653c.8.9 1.5 2.2 1.5 2.9 0 .6-1.3-.4-3-2.2-1.6-1.9-3-4.6-3-5.9 0-4.1 1.4-4.2 2.3-.2.4 2.1 1.4 4.5 2.2 5.4zm719-7.2c-1 .7-3.5 4.1-8.8 12-1.7 2.6-3.3 4.9-3.7 5.2-.3.3-1.9 2.5-3.5 5-1.7 2.5-4 5.6-5.2 7-1.3 1.4-2.3 2.9-2.3 3.4 0 .4-2.1 3.6-4.6 7-2.6 3.3-4.9 6.7-5.2 7.5-.3.8-1.3 2.2-2.1 3.2-.9.9-3.1 3.9-4.9 6.5-10.4 15.3-20 28.2-14.3 19.4 1.2-1.9 2.7-4.5 3.3-5.8.6-1.2 1.5-2.2 2-2.2.4 0 .8-.4.8-.9s4.7-8 10.5-16.7c5.8-8.6 10.5-16.1 10.5-16.6 0-.4.5-.8 1-.8.6 0 1-.4 1-.9 0-1.1 12.2-19.5 13.3-19.9.4-.2.7-.8.7-1.4 0-.6 1.4-2.7 3-4.8 1.7-2.1 3-4.2 3-4.8 0-1.2 1.3-1.7 4.4-2 1.1 0 1.6.2 1.1.6zm-.2 7c-1.6 2-3.2 4.2-3.8 4.9-.5.6-3.5 4.5-6.5 8.6-3 4.2-5.6 7.4-5.8 7.2-.3-.3 14.3-22 16.3-24.1.5-.7 1.3-1 1.8-.7.4.2-.5 2.1-2 4.1zM813 675.4c0 .8-.7 1.6-1.5 2-1.2.4-1.3.2-.2-1.4 1.4-2.4 1.7-2.5 1.7-.6zm21.7.1c.2 0-9.9 10.4-22.3 23.1-12.3 12.6-25.1 25.6-28.2 28.9-7.7 7.9-11.9 11.3-6.2 5 2.4-2.8 4.8-5.2 5.2-5.3.4-.2.8-1 .8-1.8 0-.9.5-1.2 1-.9.6.3 1 .2 1-.2 0-.5 2.7-4 6.1-7.8 3.4-3.9 8.3-9.5 11-12.5 2.6-3 6.3-7.3 8.1-9.4 1.8-2.2 4.8-5.5 6.6-7.4 1.8-2 5.1-5.7 7.4-8.3 3.5-4.1 4.6-4.7 6.7-4.2 1.4.3 2.7.7 2.8.8zm1.3 11.7c-1.9 1.6-6.4 5.6-10 8.8-3.6 3.2-7.5 6.7-8.6 7.7-5.7 4.9-13.9 12-15.8 13.8-1.2 1.1-5.5 4.9-9.6 8.5-4 3.6-7.9 7.1-8.7 7.8-.7.7-1.3 1-1.3.5 0-.4 3.9-4.6 8.6-9.3 4.6-4.7 16.9-17.2 27.2-27.8l18.7-19.3 1.5 3.1c1.4 3.1 1.4 3.2-2 6.2zm-705.5 2.2c2 1.4 3 5.2 1.6 6-1 .7-2.2-.8-3.9-4.7-1.3-3-.6-3.4 2.3-1.3zm14.3 5.1c2 5.1 3 13.4 1.6 14.7-.3.4-1.5-.3-2.7-1.5-1.8-1.8-2.2-3.4-2.3-10.4-.1-4.6.1-8.3.5-8.3.3 0 1.6 2.5 2.9 5.5zm-36.2 8c-.3.8-.1 2.6.4 4 .6 1.6.6 2.5 0 2.6-1.6.2-3.1.7-8.5 2.8-1.8.7-2 .4-1.9-2.3.1-1.7-.3-3.6-.7-4.2-.8-1 1.5-2 6.3-2.8.3-.1 1-.4 1.4-.9 1.4-1.3 3.6-.8 3 .8zm32 13.2c-.2.2-3.1-.9-6.5-2.4-5.2-2.4-6.1-3.1-5.6-4.8.4-1.1.7-2.6.7-3.3.1-.7 2.7 1.3 5.9 4.4 3.2 3.2 5.7 5.9 5.5 6.1zM766 724c0 .5-.5 1-1.1 1-.5 0-.7-.5-.4-1 .3-.6.8-1 1.1-1 .2 0 .4.4.4 1zm6.1 4.3c-1 .9-1.1.8-.5-.6.3-1 .9-1.5 1.2-1.2.3.3 0 1.1-.7 1.8zM161 735.4c0 .9-3 1.4-3.5.6-.4-.6.3-1 1.4-1 1.2 0 2.1.2 2.1.4zm16 10.4c0 .4-1.1.9-2.5 1-1.4.1-2.5-.3-2.5-.8 0-.6 1.1-1 2.5-1s2.5.4 2.5.8zm-3.8 42.4c-.7.7-1 .5-.7-.8.5-2.9.6-3 1.2-1.6.3.8.1 1.8-.5 2.4zm538.2 13c-5.9 7-19.4 19.6-19.9 18.7-.4-.5 1.7-3.2 4.7-5.8 2.9-2.7 7.8-7.2 10.8-10 5.9-5.4 7.5-6.4 4.4-2.9zm-5 .3c-.4.8-1 1.5-1.4 1.5-.4 0-2.8 1.9-5.4 4.2-8.7 8.2-11 9.8-12 8.8-.7-.7-.4-1.5.9-2.4 1.1-.8 5.6-4.2 10-7.5 9.2-6.9 8.6-6.5 7.9-4.6zm9.5 3.2c-.8 1-1.7 2-2 2.3-.3.3-1.9 2.5-3.6 5-2.7 4-4.1 5.8-8.3 10.7-.5.7-1 1.7-1 2.3 0 .5-.7 1-1.5 1-2.5 0-1.6-2.3 2.8-7.1 2.3-2.6 6.4-7.2 9.1-10.3 2.6-3.1 5-5.6 5.3-5.6.3 0-.1.8-.8 1.7zm4.4 13c-2.4 4.9-4.8 10.5-5.4 12.5-1.2 3.7-3.9 6-3.9 3.4 0-.8 1.5-4.1 3.4-7.5 1.9-3.3 3.8-7 4.2-8.3.3-1.3 1-2.5 1.3-2.8.4-.3 1.4-1.7 2.4-3.3 3-4.6 2.4-3.1-2 6zm5.3-2c-5.2 15.6-7.2 20.7-8.3 21.1-2.1.6-1.5-3.6 1.5-10.1 1.6-3.4 3.9-8.6 5.2-11.4 2.9-6.4 3.9-6.2 1.6.4zm4.9-.7c-.3 1.1-.8 3.2-1.1 4.7-.3 1.6-1.1 5-1.9 7.8-.7 2.7-1.9 7-2.5 9.5l-1.2 4.5-1.4-2.7c-1.2-2.3-1.2-3.1.1-6.2.9-2 2.7-7.2 4.1-11.6 1.4-4.4 2.9-8 3.5-8 .6 0 .8.9.4 2zm-18.5 5.1c-.7 1.1-1.4 1.8-1.7 1.5-.3-.3 0-1.2.7-2.1 1.8-2.1 2.3-1.9 1 .6zm-2.9 4.6c-1.5 2.9-4 5.9-4.1 5 0-1.4 3.3-6.7 4.3-6.7.4 0 .3.8-.2 1.7zM669 877c0 .5-.5 1-1.1 1-.5 0-.7-.5-.4-1 .3-.6.8-1 1.1-1 .2 0 .4.4.4 1z"/></svg>