<svg version="1" xmlns="http://www.w3.org/2000/svg" width="2666.667" height="2666.667" viewBox="0 0 2000.000000 2000.000000"><path d="M964.2 365.6c-6.4 3.8-11.7 13.6-10 18.4.5 1.6 3.8 4.4 8.6 7.4 14.9 9.5 17.8 11.4 29.2 18.8 6.3 4.1 17.9 11.4 25.7 16.3 7.8 4.9 14.1 9.1 13.9 9.2-.1.1-6.5-1.8-14.2-4.3-7.6-2.5-14.9-4.7-16.2-5-1.3-.2-4-1.1-6-1.8-2-.8-6.6-2.3-10.2-3.4-10.7-3.3-35.5-11.1-50.5-15.9-7.7-2.4-16.2-5.1-18.9-6-3.9-1.2-5.2-1.3-7.1-.3-5.9 3.2-9.8 19.1-5.8 23.7 1.6 1.9 12.8 5 31.3 8.8.8.2 6.6 1.5 12.8 3 6.2 1.5 11.9 2.8 12.7 2.9 3.8.5 1.9 1.3-3.7 1.5-18.8.8-37.6 2.6-65.3 6.2-21.2 2.8-22.4 2.9-28 4-2.7.6-6.8 1.2-9 1.5-2.2.3-11.6 2.2-21 4.1-9.3 1.9-17.9 3.7-19 3.9-1.1.2-2.9.6-4 .8-1.1.2-4.9 1.2-8.5 2.1l-8 2c-4.2.8-15.6 4.1-34 9.6-7.9 2.4-31.7 10.7-34.5 11.9-1.1.5-7.4 3.2-14 6-45.8 19.5-75 42.6-85.7 68.2-3.3 7.7-4.4 15.5-4.2 27.8.8 45.1 1.5 79.4 1.9 93.5.2 9.3.7 29.1 1 44 .6 33.2.8 34.4 5 38.5 3.8 3.7 9.5 4.3 14.4 1.4 5.3-3.2 5.9-6.2 6.6-37 1.1-49 1.4-62.3 2-92.9 1.4-64.4.9-59 6-67 11.7-18.5 47.9-38.4 97.5-53.8 13.6-4.2 31.8-9.4 35.7-10.2 1-.2 7.9-1.7 15.3-3.4s14.6-3.2 16-3.5c1.4-.2 7.5-1.3 13.5-2.5 6.1-1.1 12.8-2.3 15-2.6 2.2-.3 6.3-1 9-1.5 2.8-.5 6.8-1.2 9-1.4 2.2-.3 5.6-.8 7.5-1 4.3-.7 10.5-1.4 16.8-2.1 2.6-.3 6.3-.8 8.2-1 8.5-1.1 12-1.4 20.2-2 4.9-.3 9.7-.8 10.8-1 13.3-2.6 128.4-2.6 141.9 0 .9.1 6.3.6 12.1.9 5.8.4 11.6.9 13 1.1 1.4.2 5.4.7 9 1.1 10 1 11 1.1 18 1.9 3.5.3 6.7.8 7 1 .3.2 3.2.6 6.5.9 3.3.4 6.7.8 7.5 1.1.8.2 3.8.6 6.5 1 7.3.9 41.1 7.2 47.7 9 3.2.8 7.2 1.7 9 2 13.5 2.4 49.8 13.6 69.3 21.5 10.2 4.1 33.9 15.9 34.3 17.1.2.5.9.9 1.5.9 1.3.1 10.2 6.5 15.8 11.5 5.6 5 11.8 13 14.1 18.2 2.5 5.7 2.3-.1 4.3 105.3 1.1 56.5 1.6 77.6 2.1 80.4 1.1 6.6 8.3 11.3 14.5 9.5 7.2-2 9.6-6.2 9.8-16.9.1-4.1.4-14 .6-22 .2-8 .7-31.2 1-51.5.4-20.4.9-43.5 1-51.5.9-38.1.6-51.7-1-57.8-7.8-30.4-36.8-55.7-89.2-78.1-13.5-5.7-40.9-15.4-52.8-18.7-17.2-4.7-35.8-9.5-42.5-10.9-4.1-.8-8.4-1.7-9.5-1.9-1.1-.3-5.1-1.1-9-1.9-3.8-.9-8.3-1.7-10-2-5.1-.8-22.9-3.8-25.5-4.3-3.2-.6-7.3-1.2-13.5-1.9-2.7-.4-7.9-1-11.5-1.5-9.7-1.4-31.5-3.8-40.5-4.5-2.2-.1-4.5-.3-5.1-.4-1-.1-9.3-6.1-12.2-8.9-.8-.7-3-2.5-5-4s-4.6-3.4-5.7-4.3c-4.9-4-13.9-11.1-24.5-19.4-6.3-4.9-11.7-9.2-12-9.5-1.5-1.7-37.8-29.7-39.1-30.2-.9-.4-3.4.5-5.7 1.8z"/><path d="M885.1 539.6c-13.2 4.4-33.2 9.8-40.8 11-2.1.3-4 .7-4.3.9-1 .6-19.5 1.9-27.5 1.9-13.7 0-25.3-1.7-37.3-5.6-3.4-1.1-6.9-1.7-7.7-1.4-8 3 20.4 17.3 44 22.1 19.2 3.9 46.2 4.1 66.5.5 3-.6 6.9-1.3 8.5-1.6 1.7-.2 4.6-.9 6.5-1.4 4.9-1.4 5.3-1.3 8.6 1.6 24.2 21.3 77.6 46.5 98.5 46.4 6.8-.1 23.1-4.2 31.4-8 1.1-.5 5.4-2.3 9.5-4 17.6-7.3 37.2-18.7 52.8-30.8l8.3-6.4 4.7 1.1c2.6.6 5.7 1.3 7 1.6 1.3.2 3.1.7 4 .9 1.8.6 6.3 1.2 17.7 2.5 7.8.9 35.8.7 42-.4 17-2.7 29.3-6.4 41-12 13.1-6.3 18.1-10.6 14.2-12.1-.8-.3-5.2.6-9.8 2-30.7 8.9-63.1 6.3-107.1-8.5-8-2.7-15.6-4.9-16.7-4.9-4 0-8.6 2.7-17.1 10-4.7 3.9-12.5 9.8-17.5 13.1-4.9 3.2-9.4 6.2-10 6.7-.5.4-3.7 2.3-7 4.2-3.3 1.9-6.9 4-8 4.7-1.1.7-8.3 4.4-15.9 8.2-16 8.1-22.4 10.3-26.6 9.1-4.8-1.4-20.2-8.2-25.3-11.2-2.6-1.5-5-2.8-5.2-2.8-.2 0-4.3-2.3-9.2-5.1-13.4-7.7-30-19.1-39.3-27-9.6-8-12.7-9.9-16.7-9.9-1.5.1-8.8 2.1-16.2 4.6zM800.8 584.8c-3.7 2.5-4.7 4.4-4.8 8.4 0 2.5.7 4.5 2.3 6.1 1.3 1.4 13.5 7.4 28.9 14.1l26.7 11.8-3.4 4.6c-17.4 24.4.1 58.4 30.1 58.4 10.8.1 23-6.1 29.6-14.9 3.2-4.2 6.8-13.2 6.8-16.8 0-3.2 1.5-3.2 9.2.4 11.7 5.3 15 5.7 18.7 1.7 2.4-2.6 3.3-8 1.8-11.3-1.1-2.5-4.7-4.4-33.2-16.8-11-4.8-23.3-10.2-27.3-12.1-4.1-1.9-7.6-3.4-7.8-3.4-.4 0-50.3-22-59.4-26.2-11.5-5.2-15.2-6.1-18.2-4zM1193 584c-2.3.7-12.3 4.9-23 9.7-2.5 1.2-7.9 3.5-12 5.3-4.1 1.8-10.8 4.8-14.8 6.6-4.1 1.9-7.6 3.4-7.8 3.4-.3 0-3.1 1.2-6.2 2.6-3.1 1.5-16.7 7.5-30.2 13.4-44.9 19.8-44.5 19.6-45.7 22.3-1.5 3.2-.6 8.8 1.9 11.4 3.1 3.3 7.8 2.9 17.3-1.3 4.4-1.9 8.4-3.6 8.9-3.7.5-.1 1.3 1.7 1.7 4.1 1.3 7 5.4 14.8 10.3 19.6 21.8 21.2 57.8 9.3 62.5-20.6.5-2.9.7-6.4.5-7.8-1.3-8-1.8-9.9-3.9-14.2-1.3-2.7-3.3-5.8-4.5-7-1.1-1.2-1.7-2.5-1.3-2.8.5-.4 5.3-2.6 10.8-5 5.5-2.3 12.7-5.5 16-7 3.3-1.5 10.5-4.7 16-7.1 11.5-5 14.5-7.5 14.5-11.9 0-6.8-5.3-11.6-11-10zM129.9 624.4c-.2.2-5 .6-10.6 1-26.6 1.5-67.2 10.9-90.7 21-15.6 6.7-17.9 8.5-20.6 16.5-3.4 10.2.7 19.8 10.4 24.6 6.6 3.2 11.7 3 21.6-1.1 17.4-7.1 44.7-15.1 57.5-16.8 6.2-.9 11.2-1.6 14.5-2.2 14.4-2.4 57.3-2.1 74.5.5 3.3.5 8.3 1.2 11 1.6 11.2 1.4 34.9 6.3 48 10.1 5 1.4 10.4 2.9 12 3.4 26.2 7.3 61.1 20.7 97.5 37.3 2.5 1.2 4.7 2.2 5 2.2.3 0 9.7 4.7 21 10.3 19.5 9.7 32.2 16.3 49 25.5 4.1 2.2 9.3 5 11.5 6.2 5.4 3 10.9 6.1 17.5 9.8 3 1.8 6.3 3.6 7.2 4.2 8.1 4.6 46 26.5 49.2 28.4 2.3 1.3 6.1 3.5 8.6 4.9 2.5 1.3 5 2.8 5.5 3.2.6.5 3.9 2.5 7.5 4.5 3.6 2.1 7.9 4.5 9.5 5.5 65.7 38.4 104.3 59.1 138.5 74.2 17.7 7.8 44.5 17.8 51.9 19.3.9.2 5.5 1.5 10.2 2.8 24.3 7.1 56.6 9.2 78.4 5.2 25.8-4.9 49.1-17.6 67.5-36.9 9.3-9.7 11-12.1 12.6-17.4 3.7-12.6-4.2-24.6-17.1-25.9-8.7-.9-11.8.8-23 12.2-15.7 16-29.1 23.7-47.3 27.1-19.1 3.6-39.5 1.8-66.2-5.8-37.8-10.7-81.5-31.2-150-70.5-12.9-7.4-24.2-13.8-25-14.4-1.4-.8-13.8-8.1-20.5-11.9-1.6-1-7.7-4.5-13.5-8-5.8-3.4-12.8-7.5-15.5-9-2.8-1.5-12.2-7-21-12L487 742.7c-1.9-1-6.4-3.6-10-5.7-3.6-2-9-5.1-12-6.7-3-1.7-7.7-4.3-10.5-5.8-15-8.5-71.3-37.1-84-42.7-21.6-9.5-32.4-14.1-43-18.2-6.6-2.6-12.9-5.1-14-5.6-3.2-1.4-28.4-10-35-12-20.8-6.2-40.1-11.2-52.3-13.5-1.3-.2-3.1-.6-4-.9-.9-.3-3.5-.8-5.7-1.1-2.3-.3-5.2-.8-6.5-1-1.4-.3-4.5-.8-7-1.1-2.5-.3-5.2-.7-6-.9-.8-.2-5.1-.7-9.5-1.1-4.4-.3-8.9-.8-10-1.1-2.5-.5-47.1-1.4-47.6-.9zM1833.8 624.5c-.2.1-4.8.6-10.3.9-5.5.4-11.5.9-13.2 1.1-1.8.3-5 .7-7 1-11.8 1.5-45.7 8-47.3 9-.3.2-2 .6-3.6.9-9 1.7-59.6 17.6-69.9 22.1-1.6.7-8.2 3.3-14.5 5.8-6.3 2.5-16.2 6.7-22 9.3-5.8 2.5-14.4 6.4-19.3 8.5-12.6 5.6-50.7 24.9-75.2 38.2-22 11.9-26.4 14.4-48.4 27.1-7.4 4.3-15.1 8.7-17 9.8-3.4 1.9-17.5 10.1-21.3 12.3-.9.5-4.7 2.8-8.5 5-3.7 2.2-7.7 4.5-8.8 5.2-1.1.7-3.3 1.9-5 2.8-1.6.9-4.3 2.4-6 3.4-9.3 5.7-32.6 19.2-51 29.5-11.5 6.4-21.7 12.1-22.5 12.6-.8.5-9.1 4.9-18.5 9.8-96.8 50.9-153.8 60.9-193.6 34.2-3.5-2.4-10.7-8.7-16-14.2-10-10.2-14.2-12.8-20.6-12.8-6.6 0-10.9 1.8-15.1 6.4-7.2 7.8-7.8 17.3-1.7 26.1 6.5 9.4 20.8 22.8 32 30 14.4 9.1 32.1 16.1 46 18.1 2.8.3 5.9.9 7 1.1 1.1.3 8.1.6 15.6.7 21.4.4 38.1-2.1 63.4-9.4 6.1-1.7 16.6-5.2 23.5-7.6 13.4-4.9 13.1-4.8 23.2-9.3 3.7-1.7 6.9-3.1 7.2-3.1 1.4 0 42.5-20.1 54.6-26.7 3-1.7 9.1-5 13.5-7.3 4.4-2.4 11.2-6.1 15-8.3 3.9-2.2 8.8-5 11-6.2 7.9-4.4 23.6-13.6 61.5-35.7 21.2-12.3 46.4-26.9 56-32.3 9.6-5.5 17.7-10.2 18-10.5.3-.3 1.4-1 2.5-1.6 1.1-.6 8.5-4.6 16.5-8.9 71-38.5 129.5-64.4 174-77.2 26.5-7.6 39.2-10.7 52-12.8 1.9-.3 4.6-.8 6-1 5.7-1.2 7.2-1.4 13.7-2 3.7-.4 7-.9 7.3-1 2.5-1.5 45.9-2.4 56.5-1.3 3.9.4 9.7 1 13 1.2 9.5.8 22.4 3.2 36 6.6 11.3 2.9 13.2 3.4 15.5 4.3.8.3 4.4 1.5 7.9 2.7 3.5 1.2 9.6 3.5 13.4 5.1 9 3.7 13.2 4.4 18.7 2.9 15.4-4.1 20.4-23.9 8.8-34.7-9.5-8.9-62-24.4-94.3-27.9-3.3-.4-6.9-.8-8-1.1-2.3-.5-50.2-1.3-50.7-.8z"/><path d="M989.8 649.6c-12.9 3.3-22.2 12.9-30.1 31-3.4 7.6-3.8 10.1-2.2 14.7 1.2 3.7 1.2 3.7-2.4 5.4-3.1 1.6-4.5 3.5-10.1 14.8-12.3 24.6-19.1 31.3-34.5 34.5-10.2 2.2-39.5 1.6-56.5-1.1-11-1.7-12.4-1.9-15-2.4-1.4-.3-4.1-.7-6-1-1.9-.4-7.6-1.5-12.6-2.6-15-3.2-18.9-2.6-23 3.6-2.5 3.8-1.3 11.3 2.3 14.3 1.6 1.3 11.6 5.8 22.3 10.1 62.1 24.8 84.6 36 96 48 10.1 10.5 18.4 24 27.4 44.6 2.6 6 5.7 12.7 6.7 14.8 1 2.1 1.9 4.2 1.9 4.7s1.6 4.3 3.5 8.4c1.9 4.2 3.5 7.8 3.5 8.1 0 .2 1.1 2.8 2.4 5.7 1.3 2.9 6.7 15.2 11.9 27.3 13.5 31.2 14.5 33.1 17.8 36 3.5 2.8 6.4 3.1 11.4 1.1 4.4-1.9 5.1-3.2 14-23.2 4.2-9.3 8-17.8 8.5-18.9.5-1.1 5.9-13.7 12-28s11.5-26.9 11.9-28c.5-1.1 1.9-4.3 3.1-7 16.6-37.4 27.5-49.7 57.2-64.9 14.6-7.4 30.6-14.4 60.3-26.1 28.1-11.2 29.3-11.8 31.1-16 2.3-5.7 1.8-9.2-2-13-4.2-4.4-7.6-4.5-24.2-1-6.6 1.4-13.5 2.8-15.4 3.1-1.9.3-4.6.7-6 1-15.6 2.6-26.8 3.7-39.5 3.8-26.1.1-34.3-1.7-42.5-9.1-6.7-6-9-9.4-17.5-26.1-6.4-12.5-7.4-13.9-11.2-15.8-3.8-1.9-4-2.3-2.6-3.7 5-5-2.9-24.9-14.7-36.8-5.1-5.1-7.9-7-12.9-8.9-7.4-2.7-17.2-3.3-24.3-1.4zM136.7 723.6c-.1.1-3.6.5-7.7.8-12.8 1.1-17.7 1.8-31.5 4.2-26.6 4.8-66.1 18.1-73.3 24.7-10.5 9.6-7.8 27.4 5 33.5 6.2 3 13.2 2.3 24.3-2.3 20-8.2 43.7-14.6 63.5-17.1 1.9-.3 4.9-.7 6.5-.9 4.8-.8 25.3-1.8 34.5-1.9 9.3 0 33.3 1.3 35.3 1.9.7.2 3.9.6 7.2.9 5.2.5 18.2 2.6 25.5 4.1 1.4.3 3.6.7 5 1 3 .6 6.3 1.3 13.5 3 9.8 2.4 39 11 50.5 15 15.9 5.6 45.4 17.2 56 22.2 4.1 2 10.9 5 15 6.8 15.2 6.6 55.3 27 82.5 42l18 10c2.8 1.5 7.5 4.2 10.5 6 3 1.8 7.1 4.2 9 5.2 7.6 4.3 37.8 21.8 63.5 36.8 14.9 8.7 28.4 16.6 30.1 17.5 1.6 1 8.8 5.1 16 9.2 56.8 32.8 106 56.5 140.9 67.9 31.1 10.2 53 14 77.4 13.4 6.9-.1 14.4-.5 16.6-.9 21.9-3.8 35.8-9.1 52.2-20 12.3-8.1 28.5-24 32.7-32.2 6.8-12.9-3.3-29.4-17.9-29.4-7.3 0-11 2.3-22.3 13.7-15.1 15.2-27 22-45.6 25.9-10.6 2.2-29.5 2.2-42.6-.1-31-5.4-65.6-18.4-112.5-42.4-21.4-11-55.8-29.9-60.7-33.2-1.4-1.1-2.9-1.9-3.2-1.9-.3 0-4-2-8.2-4.5-4.1-2.5-7.7-4.5-7.9-4.5-.1 0-5.6-3.2-12.1-7.1-6.6-4-14.4-8.5-17.4-10.2-3-1.6-6.2-3.6-7.1-4.3-.8-.8-1.8-1.4-2.1-1.4-.3 0-11.5-6.4-24.9-14.2-13.4-7.7-26-15-27.9-16.1-1.9-1-6.4-3.6-10-5.7-7.8-4.5-10-5.7-25.5-14.2-59.9-32.9-111.2-56.6-156.5-72.4-22.1-7.8-56.3-17.5-70-20.1-1.4-.2-6.8-1.3-12-2.3-8.4-1.6-21.2-3.4-40.5-5.6-5.5-.6-51.2-1.4-51.8-.8zM1820.8 723.6c-.2.1-4.4.5-9.3.9-5 .4-9.2.9-9.5 1-.3.2-4.1.6-8.5 1s-8.3.9-8.6 1.1c-.3.1-2.8.6-5.5.9-2.7.4-6.7 1.1-8.9 1.5-2.2.5-5.6 1.2-7.5 1.5-1.9.3-6.4 1.3-10 2.1-3.6.9-7.3 1.7-8.3 1.9-1.1.2-9.8 2.7-19.5 5.4-64.7 18.2-137.2 51.4-231.4 105.6-6.2 3.6-12 7-12.8 7.5-.8.6-2.2 1.3-3 1.7-.8.4-18.4 10.6-39 22.6-20.6 12.1-39.3 22.9-41.5 24.2-2.2 1.2-6.4 3.6-9.3 5.4-29.4 17.4-83.2 45.2-106.2 54.8-13.4 5.5-29.1 11.6-33.5 12.9-20.5 6-32.3 8.8-42.2 10-9.5 1.1-24.8 1-32.3-.4-21.3-3.7-33.6-10.5-50-27.3-10-10.4-14.2-12.9-21-12.9-11.8 0-20.7 9.3-20.3 21.3.2 6.6 2.2 10.5 9.3 18.1 13.5 14.5 24.1 22.7 38.8 30 20 9.8 34.8 13.1 59.7 13 21 0 34.5-2.1 59.2-9 10.9-3.1 31.9-10.3 38.8-13.4 1.1-.5 7.4-3.2 14-6.1 28.4-12.3 67.3-32.6 108-56.2 6.6-3.8 14-8.1 16.5-9.5 2.5-1.4 13.1-7.5 23.5-13.7 36.1-21.3 87-50.4 110.5-63.2 50-27.3 104.3-52.2 141.5-64.8 6.1-2 11.9-4.1 13-4.6 1.1-.5 7.9-2.5 15-4.5 7.2-2 14.9-4.2 17.1-4.9 11.8-3.9 49.7-10.3 70.9-12.1 9.5-.8 45.5-.8 48.2 0 1 .3 5.2.8 9.3 1.1 8.7.8 29.1 4.6 40 7.6 9 2.5 28.1 8.9 29.5 9.9.6.4 3.9 1.8 7.4 3 8.1 2.8 14.4 2.3 20.4-1.7 12.9-8.7 11.7-28.1-2.3-35.3-11.4-5.8-45.7-17.2-58.5-19.3-1.6-.3-5.2-1-8-1.6-2.7-.6-5.9-1.2-7-1.4-3.1-.7-10.5-1.7-15.5-2.2-2.5-.2-6.7-.7-9.5-1.1-4.9-.6-51.2-1.4-51.7-.8z"/><path d="M133.8 819.5c-.2.1-3.4.5-7.1.9-22.6 2.1-46.8 9-65.7 18.6-10.8 5.5-22 12.1-22 13.1 0 .3 3.4 2.5 7.5 4.8 7.3 4.2 35 23.2 36.5 25 .3.3 3.7 3.3 7.5 6.6 12 10.2 27.8 25.8 37.1 36.5 2.1 2.5 4.1 4.7 4.4 5 .3.3 2.5 3 5 6s4.7 5.7 5 6c1.2 1.1 14.9 19.9 20.1 27.5 3 4.4 5.6 8.2 5.9 8.5.9.8 15 23.7 15 24.3 0 .3 1.7 3.4 3.8 6.8 6.8 11.2 28.2 52.6 28.2 54.4 0 .3 1.5 3.8 3.4 7.7 5.5 11.6 8.2 17.8 11.1 25.3 2.3 6.2 5.5 14 8.7 21.5.6 1.4 1.4 3.4 1.8 4.5.5 1.1 1.7 4.2 2.8 7 1.1 2.7 2.7 7.5 3.7 10.5s2.3 6.8 3.1 8.5c1 2.4 17.1 50.5 21.3 64 7.4 23.4 28.1 99.2 30.7 111.8.2 1 .6 2.7.9 3.7.3 1 .8 2.7 1 3.7.2 1 .8 3.8 1.5 6.3.6 2.5 1.5 6.4 2 8.7.5 2.3 1.7 7.1 2.6 10.5.9 3.5 1.8 7.2 2 8.3.2 1.1 2 9 4 17.5s3.7 16.2 3.9 17c.2.8 1.1 4.9 2 9 .9 4.1 1.8 8.2 2 9 .2.8 1.1 4.9 1.9 9 2.3 10.7 2 10.3 5.8 8 3.3-1.9 18.3-9.4 24.8-12.3 11.4-5.1 33.7-10.9 48-12.4 9.1-1 31.9-.9 41.5.1 8.9.9 34.9 6.2 42.3 8.6 3.1 1 7.3 2.3 9.2 2.8 22.4 6.4 66.6 26.9 116.5 54 18.3 9.9 28.8 15.6 46.5 25 68.9 36.7 118.7 54.3 166.6 58.8 10.3 1 35 1 43.9 0 28.9-3.1 56.5-11.2 82-24.1l10-5.1.1-260.5c0-143.2-.2-260.8-.4-261.3-.3-.4-.7-.4-1.1.2-1.7 2.8-10.5 12.6-18.1 20.2-24.5 24.4-49.9 39.7-81.5 48.9-3.8 1.1-8.8 2.3-11 2.6-2.2.3-4.6.8-5.4 1.1-7.6 2.6-42.6 3.8-57.1 2-12-1.5-20.6-2.7-23-3.1-1.4-.2-3.6-.6-5-.8-16.9-3-50.9-13.3-75.5-23-32.4-12.7-81-36.1-115.5-55.4-2.5-1.4-7.9-4.4-12-6.6-4.1-2.2-8.7-4.8-10.2-5.8-1.4-1.1-2.8-1.9-3.1-1.9-.3 0-9.5-5.1-20.4-11.3-10.9-6.3-21.8-12.5-24.3-13.9-4.7-2.7-28.4-16.3-33.8-19.5-5.6-3.3-23.5-13.5-34.7-19.8-6-3.4-13.2-7.4-16-9-2.7-1.6-7.5-4.1-10.5-5.7-3-1.6-6.9-3.7-8.6-4.7-11.4-6.8-77.9-40.1-80-40.1-.2 0-4.3-1.8-9-4-9-4.2-45.4-18.3-56.4-21.9-7.4-2.3-31.2-9-35-9.7-1.4-.3-4.1-.9-6-1.4-4.8-1.2-20.4-3.8-27.5-4.6-3.2-.3-6.8-.8-7.9-1.1-2.2-.4-39.3-1.2-39.8-.8zM1836.8 819.5c-.2.1-3.9.5-8.3.9-43 3.6-97 20.2-155.5 47.9-22.1 10.4-59.6 29.5-70 35.7-2.8 1.7-5.2 3-5.4 3-.3 0-13.7 7.4-35.1 19.5-4.9 2.7-40 22.9-64.5 37-6.9 4-14.5 8.3-17 9.7-2.5 1.4-12.8 7.2-23 13-34.9 19.7-50.2 27.8-81.7 43.4-13.8 6.8-25.3 12.4-25.6 12.4-.3 0-3.8 1.5-7.9 3.4-13.2 6.1-45 18.3-59.8 22.9-36.8 11.7-67 16.7-96.5 16.1-11.3-.2-15.6-.5-26-1.8-29.4-3.8-61-17.8-86.6-38.2-7.4-5.9-23.4-21.7-31.4-30.9l-5-5.7v522.7l8 4c22.6 11.4 51.5 21 69 23 3.3.4 6.3.9 6.7 1.1 2.8 1.7 37.8 2.3 52.2 1 35.9-3.3 72.8-14.1 118.1-34.6 7-3.1 38.5-18.9 47.5-23.7 4.1-2.2 12-6.4 17.5-9.3 5.5-2.9 12.3-6.5 15-8 2.8-1.5 8.6-4.7 13-7 4.4-2.4 11-6 14.6-8 14.9-8.4 59.5-30.1 74.4-36.2 22.9-9.4 49.1-17.4 66.5-20.3 27.8-4.5 53.4-4 76.6 1.5 16.6 3.9 36.6 11.9 50.4 20 3.5 2.1 5.2 2.6 5.5 1.7.2-.6 2.5-10.7 5-22.2 2.6-11.6 5.7-25.5 7-31 1.3-5.5 3.8-16.1 5.6-23.5 7.9-33.6 19.4-79 24.9-98 .5-1.9 3.5-12.3 6.6-23 3.1-10.7 8.2-27.6 11.4-37.5 3.1-9.9 6.5-20.5 7.5-23.5 1.8-5.8 7.7-22.4 15.2-43 4.9-13.3 19.5-49.2 23.9-58.8 1.5-3.1 4.2-9.1 6.1-13.2 4.1-8.9 17.1-34.8 20.3-40.5 1.3-2.2 3.7-6.5 5.3-9.5 7.8-14.1 22.5-37.2 33.6-52.5 6.7-9.3 21.6-28.2 23.5-30 .6-.6 2.6-2.8 4.5-5 7.8-9.3 26.9-28.1 36.5-36 2.7-2.2 5.4-4.5 6-5 .6-.6 3.8-3.1 7.1-5.5 3.3-2.5 6.2-4.7 6.5-5 1.2-1.3 19.1-13 25.3-16.5 3.7-2.2 6.7-4.2 6.7-4.5 0-.7-11.9-7.9-19.5-11.8-20.5-10.5-43-17.1-67-19.8-5.9-.6-37.1-1.4-37.7-.9z"/></svg>